<svg width="21" height="21" viewBox="0 0 21 21" fill="none" xmlns="http://www.w3.org/2000/svg">
<path d="M7.42857 13.8571H2.42857C2.04969 13.8571 1.68633 13.7066 1.41842 13.4387C1.15051 13.1708 1 12.8075 1 12.4286V2.42857C1 2.04969 1.15051 1.68633 1.41842 1.41842C1.68633 1.15051 2.04969 1 2.42857 1H16.7143C17.0931 1 17.4566 1.15051 17.7244 1.41842C17.9923 1.68633 18.1429 2.04969 18.1429 2.42857V8.14286" stroke="#F2EFE8" stroke-width="1.42857" stroke-linecap="round" stroke-linejoin="round"/>
<path d="M1 2.80005L9.57143 8.85719L18.1429 2.80005" stroke="#F2EFE8" stroke-width="1.42857" stroke-linecap="round" stroke-linejoin="round"/>
<path d="M14.5714 18.1429C16.5439 18.1429 18.1429 16.5439 18.1429 14.5714C18.1429 12.599 16.5439 11 14.5714 11C12.599 11 11 12.599 11 14.5714C11 16.5439 12.599 18.1429 14.5714 18.1429Z" stroke="#F2EFE8" stroke-width="1.42857" stroke-linecap="round" stroke-linejoin="round"/>
<path d="M19.5705 19.5715L17.0991 17.1001" stroke="#F2EFE8" stroke-width="1.42857" stroke-linecap="round" stroke-linejoin="round"/>
</svg>
