<svg width="21" height="21" viewBox="0 0 21 21" fill="none" xmlns="http://www.w3.org/2000/svg">
<path d="M10.2852 1V2.42857" stroke="#F2EFE8" stroke-width="1.42857" stroke-linecap="round" stroke-linejoin="round"/>
<path d="M14.5713 2.42864L15.2856 1.71436" stroke="#F2EFE8" stroke-width="1.42857" stroke-linecap="round" stroke-linejoin="round"/>
<path d="M5.99944 2.42864L5.28516 1.71436" stroke="#F2EFE8" stroke-width="1.42857" stroke-linecap="round" stroke-linejoin="round"/>
<path d="M19.5718 19.5715H16.2188C13.2633 19.5715 10.7955 17.3179 10.5279 14.3745L10.3635 12.5657C10.3162 12.0459 10.573 11.5455 11.0229 11.2809C11.8385 10.8011 12.8817 11.2884 13.0373 12.2218L13.4289 14.5715" stroke="#F2EFE8" stroke-width="1.42857" stroke-linecap="round" stroke-linejoin="round"/>
<path d="M19.5715 14.5662H17.2508C16.5348 14.5662 15.9294 14.0361 15.8348 13.3264L14.9366 6.58999C14.7732 5.36422 13.3509 4.76732 12.3616 5.50929C11.9542 5.81489 11.7144 6.29452 11.7144 6.80386V10.9947" stroke="#F2EFE8" stroke-width="1.42857" stroke-linecap="round" stroke-linejoin="round"/>
<path d="M1 19.5715H4.35306C7.3085 19.5715 9.7763 17.3179 10.0439 14.3745L10.2083 12.5657C10.2556 12.0459 9.99875 11.5455 9.54889 11.2809C8.73328 10.8011 7.69003 11.2884 7.53447 12.2218L7.14286 14.5715" stroke="#F2EFE8" stroke-width="1.42857" stroke-linecap="round" stroke-linejoin="round"/>
<path d="M1 14.5662H3.32069C4.03669 14.5662 4.6421 14.0361 4.73673 13.3264L5.63492 6.58999C5.79836 5.36422 7.22056 4.76732 8.20986 5.50929C8.61733 5.81489 8.85715 6.29452 8.85715 6.80386V10.9947" stroke="#F2EFE8" stroke-width="1.42857" stroke-linecap="round" stroke-linejoin="round"/>
</svg>
