<svg width="22" height="22" viewBox="0 0 22 22" fill="none" xmlns="http://www.w3.org/2000/svg">
<path d="M14.8462 16.3846V19.4615C14.8462 19.8695 14.6841 20.2609 14.3956 20.5494C14.107 20.8378 13.7157 21 13.3077 21H2.53846C2.13043 21 1.73912 20.8378 1.4506 20.5494C1.16209 20.2609 1 19.8695 1 19.4615V2.53846C1 2.13043 1.16209 1.73912 1.4506 1.4506C1.73912 1.16209 2.13043 1 2.53846 1H13.3077C13.7157 1 14.107 1.16209 14.3956 1.4506C14.6841 1.73912 14.8462 2.13043 14.8462 2.53846V5.61538" stroke="#111111" stroke-width="1.53846" stroke-linecap="round" stroke-linejoin="round"/>
<path d="M10.231 11H21.0002" stroke="#111111" stroke-width="1.53846" stroke-linecap="round" stroke-linejoin="round"/>
<path d="M17.9229 7.9231L20.9998 11L17.9229 14.0769" stroke="#111111" stroke-width="1.53846" stroke-linecap="round" stroke-linejoin="round"/>
</svg>
