<svg width="21" height="21" viewBox="0 0 21 21" fill="none" xmlns="http://www.w3.org/2000/svg">
<path d="M3.12744 19.4263V15.8833H6.67051" stroke="#111111" stroke-width="1.42857" stroke-linecap="round" stroke-linejoin="round"/>
<path d="M19.2694 8.52148C20.1509 13.2096 17.2821 17.8574 12.5981 19.1124C9.0131 20.073 5.35524 18.7808 3.12744 16.1037" stroke="#111111" stroke-width="1.42857" stroke-linecap="round" stroke-linejoin="round"/>
<path d="M1.15871 11.9071C0.277132 7.21899 3.14606 2.57124 7.83004 1.31618C11.4148 0.355656 15.0724 1.64756 17.3002 4.32433" stroke="#111111" stroke-width="1.42857" stroke-linecap="round" stroke-linejoin="round"/>
<path d="M17.3 1.0022V4.54527H13.7568" stroke="#111111" stroke-width="1.42857" stroke-linecap="round" stroke-linejoin="round"/>
<path d="M10.2144 9.4999C11.2006 9.4999 12.0001 8.7004 12.0001 7.71418C12.0001 6.72796 11.2006 5.92847 10.2144 5.92847C9.2282 5.92847 8.42871 6.72796 8.42871 7.71418C8.42871 8.7004 9.2282 9.4999 10.2144 9.4999Z" stroke="#111111" stroke-width="1.42857"/>
<path d="M6.94043 13.7857C7.49154 12.5243 8.75017 11.6428 10.2147 11.6428C11.6792 11.6428 12.9378 12.5243 13.4889 13.7857" stroke="#111111" stroke-width="1.42857" stroke-linecap="round"/>
</svg>
