<svg width="21" height="21" viewBox="0 0 21 21" fill="none" xmlns="http://www.w3.org/2000/svg">
<path d="M10.2116 1C8.54532 1.00052 6.91042 1.45298 5.48099 2.3092C4.05156 3.16541 2.88114 4.39331 2.09439 5.86211C1.30763 7.33091 0.934004 8.98561 1.01331 10.65C1.09261 12.3143 1.62187 13.926 2.54472 15.3133L1 19.4232L6.17264 18.4877C7.4182 19.0965 8.78509 19.4162 10.1714 19.423C11.5577 19.4299 12.9277 19.1237 14.1792 18.5275C15.4306 17.9312 16.5315 17.06 17.3995 15.9792C18.2675 14.8982 18.8804 13.6352 19.1924 12.2845C19.5042 10.9337 19.5074 9.52994 19.2012 8.17783C18.8952 6.82573 18.2879 5.56013 17.4246 4.4754C16.5614 3.39067 15.4644 2.51479 14.2154 1.91304C12.9665 1.31128 11.5979 0.999183 10.2116 1Z" stroke="#111111" stroke-width="1.42857" stroke-linecap="round" stroke-linejoin="round"/>
<path d="M8.08545 8.08522C8.08545 7.66479 8.21012 7.25379 8.44371 6.90422C8.67728 6.55464 9.00928 6.28218 9.39771 6.12129C9.78613 5.96039 10.2135 5.91829 10.6259 6.00032C11.0383 6.08234 11.417 6.28479 11.7143 6.58209C12.0116 6.87938 12.2141 7.25815 12.2961 7.67051C12.3781 8.08287 12.336 8.51028 12.1751 8.89871C12.0142 9.28714 11.7418 9.61914 11.3922 9.85271C11.0426 10.0863 10.6316 10.211 10.2112 10.211V11.6281" stroke="#111111" stroke-width="1.42857" stroke-linecap="round" stroke-linejoin="round"/>
<path d="M10.2146 15.1713C10.019 15.1713 9.86035 15.0125 9.86035 14.817C9.86035 14.6213 10.019 14.4626 10.2146 14.4626" stroke="#111111" stroke-width="1.42857" stroke-linecap="round" stroke-linejoin="round"/>
<path d="M10.2148 15.171C10.4105 15.171 10.5691 15.0124 10.5691 14.8167C10.5691 14.621 10.4105 14.4624 10.2148 14.4624" stroke="#111111" stroke-width="1.42857" stroke-linecap="round" stroke-linejoin="round"/>
</svg>
