<svg width="34" height="34" viewBox="0 0 34 34" fill="none" xmlns="http://www.w3.org/2000/svg">
<mask id="path-1-outside-1_344_1190" maskUnits="userSpaceOnUse" x="0" y="0" width="34" height="34" fill="black">
<rect fill="white" width="34" height="34"/>
<path fill-rule="evenodd" clip-rule="evenodd" d="M19.5648 2.19759L16.1641 2L15.5199 13.0882L7.6663 5.23466L5.25761 7.64335L12.3554 14.7411L2.3802 13.6208L2 17.0059L12.6174 18.1984L4.14802 24.7122L6.22473 27.4124L15.0835 20.5991L14.4352 31.7559L17.8359 31.9534L18.4801 20.8659L26.3337 28.7194L28.7423 26.3107L21.6438 19.2122L31.6198 20.3326L32 16.9475L21.3819 15.7549L29.8511 9.24118L27.7744 6.54102L18.9166 13.3536L19.5648 2.19759Z"/>
</mask>
<path fill-rule="evenodd" clip-rule="evenodd" d="M19.5648 2.19759L16.1641 2L15.5199 13.0882L7.6663 5.23466L5.25761 7.64335L12.3554 14.7411L2.3802 13.6208L2 17.0059L12.6174 18.1984L4.14802 24.7122L6.22473 27.4124L15.0835 20.5991L14.4352 31.7559L17.8359 31.9534L18.4801 20.8659L26.3337 28.7194L28.7423 26.3107L21.6438 19.2122L31.6198 20.3326L32 16.9475L21.3819 15.7549L29.8511 9.24118L27.7744 6.54102L18.9166 13.3536L19.5648 2.19759Z" fill="#598F52"/>
<path d="M16.1641 2L16.2511 0.502526L14.7537 0.415518L14.6666 1.91299L16.1641 2ZM19.5648 2.19759L21.0623 2.2846L21.1493 0.787123L19.6518 0.700115L19.5648 2.19759ZM15.5199 13.0882L14.4592 14.1489L16.8234 16.5131L17.0173 13.1752L15.5199 13.0882ZM7.6663 5.23466L8.72696 4.174L7.6663 3.11334L6.60564 4.174L7.6663 5.23466ZM5.25761 7.64335L4.19695 6.58269L3.13629 7.64335L4.19695 8.70401L5.25761 7.64335ZM12.3554 14.7411L12.188 16.2318L16.4455 16.71L13.4161 13.6805L12.3554 14.7411ZM2.3802 13.6208L2.54762 12.1302L1.05699 11.9627L0.88957 13.4534L2.3802 13.6208ZM2 17.0059L0.509372 16.8385L0.341954 18.3291L1.83258 18.4965L2 17.0059ZM12.6174 18.1984L13.5319 19.3874L16.4768 17.1224L12.7848 16.7078L12.6174 18.1984ZM4.14802 24.7122L3.23354 23.5232L2.04454 24.4377L2.95901 25.6267L4.14802 24.7122ZM6.22473 27.4124L5.03572 28.3269L5.95019 29.5159L7.1392 28.6014L6.22473 27.4124ZM15.0835 20.5991L16.5809 20.6861L16.7714 17.4086L14.169 19.4101L15.0835 20.5991ZM14.4352 31.7559L12.9377 31.6688L12.8507 33.1663L14.3482 33.2533L14.4352 31.7559ZM17.8359 31.9534L17.7489 33.4509L19.2463 33.5379L19.3334 32.0404L17.8359 31.9534ZM18.4801 20.8659L19.5408 19.8052L17.1766 17.441L16.9826 20.7788L18.4801 20.8659ZM26.3337 28.7194L25.273 29.7801L26.3337 30.8407L27.3943 29.7801L26.3337 28.7194ZM28.7423 26.3107L29.803 27.3714L30.8637 26.3107L29.803 25.2501L28.7423 26.3107ZM21.6438 19.2122L21.8112 17.7216L17.5537 17.2434L20.5832 20.2728L21.6438 19.2122ZM31.6198 20.3326L31.4524 21.8233L32.943 21.9907L33.1104 20.5001L31.6198 20.3326ZM32 16.9475L33.4906 17.1149L33.658 15.6243L32.1674 15.4569L32 16.9475ZM21.3819 15.7549L20.4674 14.5659L17.5224 16.8309L21.2144 17.2456L21.3819 15.7549ZM29.8511 9.24118L30.7656 10.4302L31.9546 9.51571L31.0401 8.3267L29.8511 9.24118ZM27.7744 6.54102L28.9634 5.62654L28.0489 4.43754L26.8599 5.35201L27.7744 6.54102ZM18.9166 13.3536L17.4191 13.2666L17.2287 16.5441L19.8311 14.5426L18.9166 13.3536ZM16.0771 3.49747L19.4778 3.69506L19.6518 0.700115L16.2511 0.502526L16.0771 3.49747ZM17.0173 13.1752L17.6616 2.08701L14.6666 1.91299L14.0224 13.0012L17.0173 13.1752ZM6.60564 6.29532L14.4592 14.1489L16.5805 12.0276L8.72696 4.174L6.60564 6.29532ZM6.31827 8.70401L8.72696 6.29532L6.60564 4.174L4.19695 6.58269L6.31827 8.70401ZM13.4161 13.6805L6.31827 6.58269L4.19695 8.70401L11.2947 15.8018L13.4161 13.6805ZM2.21278 15.1114L12.188 16.2318L12.5228 13.2505L2.54762 12.1302L2.21278 15.1114ZM3.49063 17.1733L3.87083 13.7882L0.88957 13.4534L0.509372 16.8385L3.49063 17.1733ZM12.7848 16.7078L2.16742 15.5153L1.83258 18.4965L12.45 19.689L12.7848 16.7078ZM5.06249 25.9012L13.5319 19.3874L11.7029 17.0094L3.23354 23.5232L5.06249 25.9012ZM7.41373 26.4979L5.33702 23.7978L2.95901 25.6267L5.03572 28.3269L7.41373 26.4979ZM14.169 19.4101L5.31025 26.2234L7.1392 28.6014L15.9979 21.7881L14.169 19.4101ZM15.9327 31.8429L16.5809 20.6861L13.586 20.5121L12.9377 31.6688L15.9327 31.8429ZM17.9229 30.456L14.5222 30.2584L14.3482 33.2533L17.7489 33.4509L17.9229 30.456ZM16.9826 20.7788L16.3384 31.8664L19.3334 32.0404L19.9776 20.9529L16.9826 20.7788ZM27.3943 27.6587L19.5408 19.8052L17.4194 21.9265L25.273 29.7801L27.3943 27.6587ZM27.6817 25.2501L25.273 27.6587L27.3943 29.7801L29.803 27.3714L27.6817 25.2501ZM20.5832 20.2728L27.6817 27.3714L29.803 25.2501L22.7045 18.1515L20.5832 20.2728ZM31.7872 18.842L21.8112 17.7216L21.4764 20.7028L31.4524 21.8233L31.7872 18.842ZM30.5094 16.7801L30.1292 20.1652L33.1104 20.5001L33.4906 17.1149L30.5094 16.7801ZM21.2144 17.2456L31.8326 18.4381L32.1674 15.4569L21.5493 14.2643L21.2144 17.2456ZM28.9367 8.05217L20.4674 14.5659L22.2963 16.944L30.7656 10.4302L28.9367 8.05217ZM26.5854 7.45549L28.6621 10.1556L31.0401 8.3267L28.9634 5.62654L26.5854 7.45549ZM19.8311 14.5426L28.6889 7.73002L26.8599 5.35201L18.0021 12.1646L19.8311 14.5426ZM18.0673 2.11058L17.4191 13.2666L20.4141 13.4406L21.0623 2.2846L18.0673 2.11058Z" fill="black" mask="url(#path-1-outside-1_344_1190)"/>
</svg>
